<svg width="498" height="160" viewBox="0 0 498 160" fill="none" xmlns="http://www.w3.org/2000/svg">
<path d="M43.0522 76.07C43.0522 79.3287 42.3629 81.6473 40.9842 83.026C39.6682 84.342 37.3809 85 34.1222 85H22.6542C20.8369 85 19.5209 84.5613 18.7062 83.684C17.9542 82.744 17.3902 81.3653 17.0142 79.548H31.1142C33.0569 79.548 34.2789 79.1407 34.7802 78.326C35.2816 77.5113 35.5322 76.1327 35.5322 74.19V58.962C35.5322 57.0193 35.2502 55.6407 34.6862 54.826C34.1849 54.0113 32.8689 53.604 30.7382 53.604H25.9442C22.6856 53.604 20.3669 52.946 18.9882 51.63C17.6722 50.2513 17.0142 47.9327 17.0142 44.674V28.13C17.0142 24.8713 17.6722 22.584 18.9882 21.268C20.3669 19.8893 22.6856 19.2 25.9442 19.2H37.1302C38.9476 19.2 40.2322 19.67 40.9842 20.61C41.7989 21.4873 42.3942 22.8347 42.7702 24.652H28.9522C27.0096 24.652 25.7876 25.0593 25.2862 25.874C24.7849 26.6887 24.5342 28.0673 24.5342 30.01V42.794C24.5342 44.7367 24.7849 46.1153 25.2862 46.93C25.7876 47.7447 27.0096 48.152 28.9522 48.152H34.1222C37.3809 48.152 39.6682 48.8413 40.9842 50.22C42.3629 51.536 43.0522 53.8233 43.0522 57.082V76.07ZM87.2778 85C84.0191 85 81.7004 84.342 80.3218 83.026C79.0058 81.6473 78.3478 79.3287 78.3478 76.07V28.13C78.3478 24.8713 79.0058 22.584 80.3218 21.268C81.7004 19.8893 84.0191 19.2 87.2778 19.2H99.4038C101.221 19.2 102.506 19.67 103.258 20.61C104.072 21.4873 104.668 22.8347 105.044 24.652H90.2858C88.3431 24.652 87.1211 25.0593 86.6198 25.874C86.1184 26.6887 85.8678 28.0673 85.8678 30.01V74.19C85.8678 76.1327 86.1184 77.5113 86.6198 78.326C87.1211 79.1407 88.3431 79.548 90.2858 79.548H105.044V82.462C105.044 83.4647 104.887 84.154 104.574 84.53C104.323 84.8433 103.696 85 102.694 85H87.2778ZM157.181 48.152C159.123 48.152 160.345 47.7447 160.847 46.93C161.348 46.1153 161.599 44.7367 161.599 42.794V30.01C161.599 28.0673 161.348 26.6887 160.847 25.874C160.345 25.0593 159.123 24.652 157.181 24.652H145.713V82.462C145.713 83.4647 145.525 84.154 145.149 84.53C144.835 84.8433 144.177 85 143.175 85H138.193V21.738C138.193 20.7353 138.349 20.0773 138.663 19.764C139.039 19.388 139.728 19.2 140.731 19.2H160.189C163.447 19.2 165.735 19.8893 167.051 21.268C168.429 22.584 169.119 24.8713 169.119 28.13V44.674C169.119 47.6193 168.586 49.7813 167.521 51.16C166.455 52.476 164.638 53.2593 162.069 53.51L171.563 85H166.769C165.766 85 165.014 84.8433 164.513 84.53C164.074 84.154 163.698 83.4647 163.385 82.462L154.643 53.604H151.823C150.82 53.604 150.162 53.4473 149.849 53.134C149.598 52.758 149.473 52.0687 149.473 51.066V48.152H157.181ZM212.525 74.19C212.525 76.1327 212.776 77.5113 213.277 78.326C213.779 79.1407 215.001 79.548 216.943 79.548H225.403C227.346 79.548 228.568 79.1407 229.069 78.326C229.571 77.5113 229.821 76.1327 229.821 74.19V30.01C229.821 28.0673 229.571 26.6887 229.069 25.874C228.568 25.0593 227.346 24.652 225.403 24.652H216.943C215.001 24.652 213.779 25.0593 213.277 25.874C212.776 26.6887 212.525 28.0673 212.525 30.01V74.19ZM205.005 28.13C205.005 24.8713 205.663 22.584 206.979 21.268C208.358 19.8893 210.677 19.2 213.935 19.2H228.411C231.67 19.2 233.957 19.8893 235.273 21.268C236.652 22.584 237.341 24.8713 237.341 28.13V76.07C237.341 79.3287 236.652 81.6473 235.273 83.026C233.957 84.342 231.67 85 228.411 85H213.935C210.677 85 208.358 84.342 206.979 83.026C205.663 81.6473 205.005 79.3287 205.005 76.07V28.13ZM273.755 85V21.738C273.755 20.7353 273.911 20.0773 274.225 19.764C274.601 19.388 275.29 19.2 276.293 19.2H281.275V79.548H301.109V82.462C301.109 83.4647 300.921 84.154 300.545 84.53C300.231 84.8433 299.573 85 298.571 85H273.755ZM333.228 85V21.738C333.228 20.7353 333.385 20.0773 333.698 19.764C334.074 19.388 334.763 19.2 335.766 19.2H340.748V79.548H360.582V82.462C360.582 83.4647 360.394 84.154 360.018 84.53C359.705 84.8433 359.047 85 358.044 85H333.228ZM400.221 53.604V79.548H418.175V82.462C418.175 83.4647 417.987 84.154 417.611 84.53C417.298 84.8433 416.64 85 415.637 85H392.701V21.738C392.701 20.7353 392.858 20.0773 393.171 19.764C393.547 19.388 394.237 19.2 395.239 19.2H418.175V22.114C418.175 23.1167 418.019 23.806 417.705 24.182C417.455 24.4953 416.828 24.652 415.825 24.652H400.221V48.152H415.355V51.066C415.355 52.0687 415.199 52.758 414.885 53.134C414.635 53.4473 414.008 53.604 413.005 53.604H400.221ZM455.087 19.2L464.017 40.256L465.803 47.212H466.367L468.059 40.256L476.989 19.2H481.031C482.033 19.2 482.66 19.388 482.911 19.764C483.224 20.0773 483.381 20.7353 483.381 21.738L470.315 52.288L483.287 82.462C483.287 83.4647 483.13 84.154 482.817 84.53C482.566 84.8433 481.939 85 480.937 85H476.895L468.247 63.944L466.273 57.458H465.709L463.829 63.944L455.181 85H451.139C450.136 85 449.478 84.8433 449.165 84.53C448.914 84.154 448.789 83.4647 448.789 82.462L461.761 52.288L448.695 21.738C448.695 20.7353 448.82 20.0773 449.071 19.764C449.384 19.388 450.042 19.2 451.045 19.2H455.087Z" fill="white"/>
<path d="M58.7078 140.419L58.0788 136.756H57.8568L57.2648 140.419L54.3418 151.001C54.2431 151.396 54.1075 151.667 53.9348 151.815C53.7868 151.938 53.5155 152 53.1208 152H50.6418L46.1278 127.099C45.9798 126.433 46.2265 126.1 46.8678 126.1H48.8658L51.9738 144.156L52.7138 148.596H52.9358L53.8238 144.156L56.7098 133.574C56.7591 133.451 56.8455 133.327 56.9688 133.204C57.1168 133.081 57.2895 133.019 57.4868 133.019H59.4848L62.1118 144.156L63.0368 148.596H63.2588L63.9618 144.156L66.7738 127.099C66.8478 126.704 66.9711 126.445 67.1438 126.322C67.3411 126.174 67.6371 126.1 68.0318 126.1H69.8448L65.4048 151.001C65.3061 151.396 65.1705 151.667 64.9978 151.815C64.8498 151.963 64.5785 152.037 64.1838 152.037H61.5568L58.7078 140.419ZM95.8535 126.1V151.001C95.8535 151.396 95.7795 151.667 95.6315 151.815C95.5082 151.938 95.2492 152 94.8545 152H92.8935V127.099C92.8935 126.704 92.9552 126.445 93.0785 126.322C93.2265 126.174 93.4978 126.1 93.8925 126.1H95.8535ZM85.7155 139.642V151.001C85.7155 151.396 85.6415 151.667 85.4935 151.815C85.3702 151.938 85.1112 152 84.7165 152H82.7555V127.099C82.7555 126.704 82.8172 126.445 82.9405 126.322C83.0885 126.174 83.3598 126.1 83.7545 126.1H85.7155V137.496H91.4135V138.643C91.4135 139.038 91.3518 139.309 91.2285 139.457C91.1298 139.58 90.8832 139.642 90.4885 139.642H85.7155ZM113.134 147.745C113.134 148.51 113.233 149.052 113.43 149.373C113.628 149.694 114.109 149.854 114.873 149.854H118.203C118.968 149.854 119.449 149.694 119.646 149.373C119.844 149.052 119.942 148.51 119.942 147.745V130.355C119.942 129.59 119.844 129.048 119.646 128.727C119.449 128.406 118.968 128.246 118.203 128.246H114.873C114.109 128.246 113.628 128.406 113.43 128.727C113.233 129.048 113.134 129.59 113.134 130.355V147.745ZM110.174 129.615C110.174 128.332 110.433 127.432 110.951 126.914C111.494 126.371 112.407 126.1 113.689 126.1H119.387C120.67 126.1 121.57 126.371 122.088 126.914C122.631 127.432 122.902 128.332 122.902 129.615V148.485C122.902 149.768 122.631 150.68 122.088 151.223C121.57 151.741 120.67 152 119.387 152H113.689C112.407 152 111.494 151.741 110.951 151.223C110.433 150.68 110.174 149.768 110.174 148.485V129.615ZM163.295 148.485C163.295 149.768 163.023 150.68 162.481 151.223C161.963 151.741 161.062 152 159.78 152H155.266C154.55 152 154.032 151.827 153.712 151.482C153.416 151.112 153.194 150.569 153.046 149.854H158.596C159.36 149.854 159.841 149.694 160.039 149.373C160.236 149.052 160.335 148.51 160.335 147.745V141.751C160.335 140.986 160.224 140.444 160.002 140.123C159.804 139.802 159.286 139.642 158.448 139.642H156.561C155.278 139.642 154.365 139.383 153.823 138.865C153.305 138.322 153.046 137.41 153.046 136.127V129.615C153.046 128.332 153.305 127.432 153.823 126.914C154.365 126.371 155.278 126.1 156.561 126.1H160.964C161.679 126.1 162.185 126.285 162.481 126.655C162.801 127 163.036 127.531 163.184 128.246H157.745C156.98 128.246 156.499 128.406 156.302 128.727C156.104 129.048 156.006 129.59 156.006 130.355V135.387C156.006 136.152 156.104 136.694 156.302 137.015C156.499 137.336 156.98 137.496 157.745 137.496H159.78C161.062 137.496 161.963 137.767 162.481 138.31C163.023 138.828 163.295 139.728 163.295 141.011V148.485ZM180.703 152C179.42 152 178.507 151.741 177.965 151.223C177.447 150.68 177.188 149.768 177.188 148.485V129.615C177.188 128.332 177.447 127.432 177.965 126.914C178.507 126.371 179.42 126.1 180.703 126.1H185.476C186.191 126.1 186.697 126.285 186.993 126.655C187.313 127 187.548 127.531 187.696 128.246H181.887C181.122 128.246 180.641 128.406 180.444 128.727C180.246 129.048 180.148 129.59 180.148 130.355V147.745C180.148 148.51 180.246 149.052 180.444 149.373C180.641 149.694 181.122 149.854 181.887 149.854H187.696V151.001C187.696 151.396 187.634 151.667 187.511 151.815C187.412 151.938 187.165 152 186.771 152H180.703ZM208.218 137.496C208.982 137.496 209.463 137.336 209.661 137.015C209.858 136.694 209.957 136.152 209.957 135.387V130.355C209.957 129.59 209.858 129.048 209.661 128.727C209.463 128.406 208.982 128.246 208.218 128.246H203.704V151.001C203.704 151.396 203.63 151.667 203.482 151.815C203.358 151.938 203.099 152 202.705 152H200.744V127.099C200.744 126.704 200.805 126.445 200.929 126.322C201.077 126.174 201.348 126.1 201.743 126.1H209.402C210.684 126.1 211.585 126.371 212.103 126.914C212.645 127.432 212.917 128.332 212.917 129.615V136.127C212.917 137.286 212.707 138.137 212.288 138.68C211.868 139.198 211.153 139.506 210.142 139.605L213.879 152H211.992C211.597 152 211.301 151.938 211.104 151.815C210.931 151.667 210.783 151.396 210.66 151.001L207.219 139.642H206.109C205.714 139.642 205.455 139.58 205.332 139.457C205.233 139.309 205.184 139.038 205.184 138.643V137.496H208.218ZM230.002 147.745C230.002 148.51 230.101 149.052 230.298 149.373C230.496 149.694 230.977 149.854 231.741 149.854H235.071C235.836 149.854 236.317 149.694 236.514 149.373C236.712 149.052 236.81 148.51 236.81 147.745V130.355C236.81 129.59 236.712 129.048 236.514 128.727C236.317 128.406 235.836 128.246 235.071 128.246H231.741C230.977 128.246 230.496 128.406 230.298 128.727C230.101 129.048 230.002 129.59 230.002 130.355V147.745ZM227.042 129.615C227.042 128.332 227.301 127.432 227.819 126.914C228.362 126.371 229.275 126.1 230.557 126.1H236.255C237.538 126.1 238.438 126.371 238.956 126.914C239.499 127.432 239.77 128.332 239.77 129.615V148.485C239.77 149.768 239.499 150.68 238.956 151.223C238.438 151.741 237.538 152 236.255 152H230.557C229.275 152 228.362 151.741 227.819 151.223C227.301 150.68 227.042 149.768 227.042 148.485V129.615ZM254.103 152V127.099C254.103 126.704 254.165 126.445 254.288 126.322C254.436 126.174 254.707 126.1 255.102 126.1H257.063V149.854H264.87V151.001C264.87 151.396 264.796 151.667 264.648 151.815C264.525 151.938 264.266 152 263.871 152H254.103ZM277.513 152V127.099C277.513 126.704 277.574 126.445 277.698 126.322C277.846 126.174 278.117 126.1 278.512 126.1H280.473V149.854H288.28V151.001C288.28 151.396 288.206 151.667 288.058 151.815C287.934 151.938 287.675 152 287.281 152H277.513ZM327.241 126.1V127.247C327.241 127.642 327.179 127.913 327.056 128.061C326.957 128.184 326.711 128.246 326.316 128.246H320.174V137.496H326.131V138.643C326.131 139.038 326.069 139.309 325.946 139.457C325.847 139.58 325.601 139.642 325.206 139.642H320.174V151.001C320.174 151.396 320.1 151.667 319.952 151.815C319.829 151.938 319.57 152 319.175 152H317.214V127.099C317.214 126.704 317.276 126.445 317.399 126.322C317.547 126.174 317.818 126.1 318.213 126.1H327.241ZM343.042 139.642V151.001C343.042 151.396 342.968 151.667 342.82 151.815C342.696 151.938 342.437 152 342.043 152H340.082V129.615C340.082 128.332 340.341 127.432 340.859 126.914C341.401 126.371 342.314 126.1 343.597 126.1H348.925C350.207 126.1 351.108 126.371 351.626 126.914C352.168 127.432 352.44 128.332 352.44 129.615V151.001C352.44 151.396 352.366 151.667 352.218 151.815C352.094 151.938 351.835 152 351.441 152H349.48V130.355C349.48 129.64 349.381 129.122 349.184 128.801C349.011 128.48 348.604 128.295 347.963 128.246H344.559C343.893 128.295 343.473 128.48 343.301 128.801C343.128 129.122 343.042 129.64 343.042 130.355V137.496H348V138.643C348 139.038 347.938 139.309 347.815 139.457C347.716 139.58 347.469 139.642 347.075 139.642H343.042ZM376.548 148.485C376.548 149.768 376.276 150.68 375.734 151.223C375.216 151.741 374.315 152 373.033 152H368.519C367.803 152 367.285 151.827 366.965 151.482C366.669 151.112 366.447 150.569 366.299 149.854H371.849C372.613 149.854 373.094 149.694 373.292 149.373C373.489 149.052 373.588 148.51 373.588 147.745V141.751C373.588 140.986 373.477 140.444 373.255 140.123C373.057 139.802 372.539 139.642 371.701 139.642H369.814C368.531 139.642 367.618 139.383 367.076 138.865C366.558 138.322 366.299 137.41 366.299 136.127V129.615C366.299 128.332 366.558 127.432 367.076 126.914C367.618 126.371 368.531 126.1 369.814 126.1H374.217C374.932 126.1 375.438 126.285 375.734 126.655C376.054 127 376.289 127.531 376.437 128.246H370.998C370.233 128.246 369.752 128.406 369.555 128.727C369.357 129.048 369.259 129.59 369.259 130.355V135.387C369.259 136.152 369.357 136.694 369.555 137.015C369.752 137.336 370.233 137.496 370.998 137.496H373.033C374.315 137.496 375.216 137.767 375.734 138.31C376.276 138.828 376.548 139.728 376.548 141.011V148.485ZM402.577 126.1V127.247C402.577 127.642 402.503 127.913 402.355 128.061C402.231 128.184 401.972 128.246 401.578 128.246H397.138V151.001C397.138 151.396 397.064 151.667 396.916 151.815C396.792 151.938 396.533 152 396.139 152H394.178V128.246H388.813V127.099C388.813 126.704 388.874 126.445 388.998 126.322C389.146 126.174 389.417 126.1 389.812 126.1H402.577ZM418.149 139.642V149.854H425.216V151.001C425.216 151.396 425.142 151.667 424.994 151.815C424.871 151.938 424.612 152 424.217 152H415.189V127.099C415.189 126.704 415.251 126.445 415.374 126.322C415.522 126.174 415.793 126.1 416.188 126.1H425.216V127.247C425.216 127.642 425.154 127.913 425.031 128.061C424.932 128.184 424.686 128.246 424.291 128.246H418.149V137.496H424.106V138.643C424.106 139.038 424.044 139.309 423.921 139.457C423.822 139.58 423.576 139.642 423.181 139.642H418.149ZM446.109 137.496C446.873 137.496 447.354 137.336 447.552 137.015C447.749 136.694 447.848 136.152 447.848 135.387V130.355C447.848 129.59 447.749 129.048 447.552 128.727C447.354 128.406 446.873 128.246 446.109 128.246H441.595V151.001C441.595 151.396 441.521 151.667 441.373 151.815C441.249 151.938 440.99 152 440.596 152H438.635V127.099C438.635 126.704 438.696 126.445 438.82 126.322C438.968 126.174 439.239 126.1 439.634 126.1H447.293C448.575 126.1 449.476 126.371 449.994 126.914C450.536 127.432 450.808 128.332 450.808 129.615V136.127C450.808 137.286 450.598 138.137 450.179 138.68C449.759 139.198 449.044 139.506 448.033 139.605L451.77 152H449.883C449.488 152 449.192 151.938 448.995 151.815C448.822 151.667 448.674 151.396 448.551 151.001L445.11 139.642H444C443.605 139.642 443.346 139.58 443.223 139.457C443.124 139.309 443.075 139.038 443.075 138.643V137.496H446.109Z" fill="#C5C5C5"/>
</svg>
